HIERARCHY
ROOT Hips
{
 OFFSET 0.000000 0.000000 0.000000
 CHANNELS 6 Xposition Yposition Zposition Yrotation Xrotation Zrotation
 JOINT Chest
 {
  OFFSET 0.000000 14.374500 -0.011500
  CHANNELS 3 Yrotation Xrotation Zrotation
  JOINT Chest2
  {
   OFFSET 0.000000 9.203400 0.023400
   CHANNELS 3 Yrotation Xrotation Zrotation
   JOINT Chest3
   {
    OFFSET 0.000000 9.162700 0.000000
    CHANNELS 3 Yrotation Xrotation Zrotation
    JOINT Chest4
    {
     OFFSET 0.000000 9.153300 0.000000
     CHANNELS 3 Yrotation Xrotation Zrotation
     JOINT Neck
     {
      OFFSET 0.000000 13.353600 0.000000
      CHANNELS 3 Yrotation Xrotation Zrotation
      JOINT Head
      {
       OFFSET 0.000000 8.573800 0.049400
       CHANNELS 3 Yrotation Xrotation Zrotation
       End Site
       {
        OFFSET 0.000000 16.219200 0.026100
       }
      }
     }
     JOINT RightCollar
     {
      OFFSET -2.497100 8.876100 0.000000
      CHANNELS 3 Yrotation Xrotation Zrotation
      JOINT RightShoulder
      {
       OFFSET -12.289200 0.000000 0.000000
       CHANNELS 3 Yrotation Xrotation Zrotation
       JOINT RightElbow
       {
        OFFSET 0.000000 -28.194900 0.000000
        CHANNELS 3 Yrotation Xrotation Zrotation
        JOINT RightWrist
        {
         OFFSET 0.000000 -23.009700 0.007900
         CHANNELS 3 Yrotation Xrotation Zrotation
         End Site
         {
          OFFSET 0.000000 -17.151500 0.000000
         }
        }
       }
      }
     }
     JOINT LeftCollar
     {
      OFFSET 2.497100 8.876100 0.000000
      CHANNELS 3 Yrotation Xrotation Zrotation
      JOINT LeftShoulder
      {
       OFFSET 12.289200 0.000000 0.000000
       CHANNELS 3 Yrotation Xrotation Zrotation
       JOINT LeftElbow
       {
        OFFSET 0.000000 -28.194900 0.000000
        CHANNELS 3 Yrotation Xrotation Zrotation
        JOINT LeftWrist
        {
         OFFSET 0.000000 -23.009700 0.007900
         CHANNELS 3 Yrotation Xrotation Zrotation
         End Site
         {
          OFFSET 0.000000 -17.151500 0.000000
         }
        }
       }
      }
     }
    }
   }
  }
 }
 JOINT RightHip
 {
  OFFSET -11.777600 0.056700 0.005700
  CHANNELS 3 Yrotation Xrotation Zrotation
  JOINT RightKnee
  {
   OFFSET 0.000000 -39.966000 -0.004200
   CHANNELS 3 Yrotation Xrotation Zrotation
   JOINT RightAnkle
   {
    OFFSET 0.000000 -41.981900 0.027400
    CHANNELS 3 Yrotation Xrotation Zrotation
    JOINT RightToe
    {
     OFFSET 0.000000 -9.910600 16.950100
     CHANNELS 3 Yrotation Xrotation Zrotation
     End Site
     {
      OFFSET 0.000000 -1.461000 6.191600
     }
    }
   }
  }
 }
 JOINT LeftHip
 {
  OFFSET 11.777600 0.056700 0.005700
  CHANNELS 3 Yrotation Xrotation Zrotation
  JOINT LeftKnee
  {
   OFFSET 0.000000 -39.966000 -0.004200
   CHANNELS 3 Yrotation Xrotation Zrotation
   JOINT LeftAnkle
   {
    OFFSET 0.000000 -41.981900 0.027400
    CHANNELS 3 Yrotation Xrotation Zrotation
    JOINT LeftToe
    {
     OFFSET 0.000000 -9.910600 16.950100
     CHANNELS 3 Yrotation Xrotation Zrotation
     End Site
     {
      OFFSET 0.000000 -1.461000 6.191600
     }
    }
   }
  }
 }
}
MOTION
Frames: 5
Frame Time: 0.008333
-4.564148 130.441432 84.349986 176.240160 -52.861470 -3.163082 3.918934 29.040355 4.289115 0.545368 5.487563 0.636580 0.890192 8.622961 1.018158 2.894499 23.341182 3.196408 -2.771290 14.604022 -6.708808 -1.480118 -10.271795 -6.588369 4.328050 -5.560526 1.876037 25.491848 -22.226943 -18.324546 -45.591191 -80.480450 91.391966 36.889757 26.401858 23.801470 -13.840506 -7.518738 -1.993139 -18.496243 -25.221894 12.099311 17.956327 -40.405735 -69.366147 -6.492079 13.289389 -4.336159 6.406099 -24.964280 2.967891 -72.261711 83.631592 -76.732486 1.995220 -25.103902 9.212278 0.001246 -0.003398 0.000729 -3.230110 -26.111810 -3.309284 145.379496 71.303628 155.530917 -4.359058 13.501402 -8.846648 0.001356 -0.000776 0.000793
-4.564418 130.440758 84.350285 176.247433 -52.855470 -3.165940 3.915863 29.046363 4.285214 0.552267 5.530125 0.632509 0.889161 8.611490 1.020859 2.892906 23.324862 3.196598 -2.897496 14.488906 -6.714067 -1.565924 -10.386011 -6.568958 4.343459 -5.586531 1.856707 25.491929 -22.211721 -18.313623 -45.595473 -80.471551 91.400759 36.875087 26.426026 23.718968 -13.827169 -7.571411 -1.989996 -18.519275 -25.187173 12.094089 17.949051 -40.418238 -69.376399 -6.530674 13.239574 -4.253197 6.400376 -24.970044 2.964889 -72.258269 83.628146 -76.730613 1.999853 -25.103189 9.210427 0.001324 -0.002876 0.000774 -3.238500 -26.123431 -3.306312 145.374447 71.304667 155.521510 -4.364398 13.514317 -8.847642 0.000358 -0.000358 0.000209
-4.564400 130.440680 84.350153 176.246399 -52.852461 -3.163263 3.918435 29.055004 4.282491 0.551569 5.526023 0.633460 0.893695 8.681997 1.012542 2.894175 23.272201 3.201385 -3.011049 14.395056 -6.717012 -1.685368 -10.509959 -6.541886 4.366323 -5.606388 1.823461 25.464089 -22.225085 -18.288349 -45.583716 -80.468365 91.404242 36.856023 26.455894 23.644763 -13.820158 -7.611054 -1.986658 -18.538514 -25.164282 12.094204 17.946755 -40.430516 -69.388217 -6.545955 13.214957 -4.207019 6.398876 -24.974300 2.958309 -72.212008 83.626585 -76.685092 2.008875 -25.096758 9.208094 -0.000999 -0.003684 -0.000584 -3.242668 -26.132535 -3.301695 145.362299 71.306823 155.505479 -4.371200 13.533827 -8.851379 -0.000310 -0.002040 -0.000181
-4.563519 130.440827 84.349936 176.241122 -52.850457 -3.160702 3.924736 29.072892 4.280456 0.552595 5.533244 0.632888 0.893214 8.672537 1.014892 2.896585 23.304102 3.193973 -3.128968 14.278254 -6.709261 -1.812148 -10.629094 -6.510336 4.379517 -5.652900 1.816491 25.469755 -22.204094 -18.287544 -45.659659 -80.483444 91.481928 36.837170 26.484632 23.575479 -13.818264 -7.662356 -1.967329 -18.562062 -25.142764 12.096393 17.959476 -40.449420 -69.403774 -6.564081 13.197062 -4.164382 6.400591 -24.978639 2.958425 -72.167596 83.624023 -76.641404 2.022192 -25.090081 9.204771 0.000679 -0.004862 0.000397 -3.245315 -26.139466 -3.293190 145.362391 71.309233 155.503786 -4.378974 13.551898 -8.855211 -0.000997 -0.001131 -0.000583
-4.563445 130.440707 84.349798 176.227528 -52.847213 -3.148464 3.923040 29.106202 4.265118 0.554757 5.545834 0.630672 0.902646 8.640685 1.022128 2.890625 23.374472 3.174218 -3.242685 14.126838 -6.688026 -1.946085 -10.743491 -6.473061 4.408023 -5.729097 1.805652 25.499864 -22.156123 -18.302309 -45.899119 -80.514874 91.685856 36.817811 26.497040 23.529650 -13.797180 -7.751825 -1.946080 -18.607954 -25.098444 12.109009 17.985691 -40.481332 -69.427857 -6.580845 13.182841 -4.114671 6.407981 -24.984483 2.956884 -72.140547 83.622159 -76.618862 2.017772 -25.082077 9.212204 -0.003781 -0.003832 -0.002211 -3.241790 -26.146749 -3.288354 145.373332 71.310283 155.511489 -4.381291 13.557157 -8.855709 -0.001150 -0.001998 -0.000672
